<?xml version="1.0" encoding="utf-8"?>
<!-- Generator: Adobe Illustrator 18.1.1, SVG Export Plug-In . SVG Version: 6.00 Build 0)  -->
<svg version="1.1" id="Layer_1" xmlns="http://www.w3.org/2000/svg" xmlns:xlink="http://www.w3.org/1999/xlink" x="0px" y="0px"
	 viewBox="0 0 1920 1080" enable-background="new 0 0 1920 1080" xml:space="preserve">
<g>
	<path d="M499,37.3c-54.2,0-105,23.6-139.8,64.1c-34.8-40.5-85.7-64.1-139.8-64.1C117.7,37.3,35.1,120,35.1,221.7
		c0,48.3,18.5,93.9,52.2,128.5l230.8,251.3c10.8,11.8,25.5,18.4,41.2,18.4c15.7,0,30.3-6.6,41.2-18.4l230.7-251.2
		c33.7-34.6,52.3-80.2,52.3-128.6C683.3,119.9,600.6,37.3,499,37.3z M606.1,326.3c-0.1,0.1-0.2,0.2-0.4,0.4L374.9,578
		c-4.3,4.6-9.8,7.2-15.7,7.2s-11.4-2.5-15.7-7.2L112.9,327c-0.2-0.2-0.4-0.5-0.6-0.7c-27.5-28.1-42.7-65.3-42.7-104.7
		c0-82.6,67.1-149.7,149.7-149.7c49.7,0,96.1,24.6,124.1,65.8l1.1,1.7c3.1,5,8.6,8,14.5,8c6.1,0.1,11.3-2.9,14.5-7.9
		C401.4,97,448.2,71.6,499,71.6c82.6,0,149.7,67.2,149.7,149.7C648.7,260.9,633.6,298.1,606.1,326.3z"/>
	<path d="M225,112.9c-63.1,0-114.3,51.3-114.3,114.3c0,9.5,7.7,17.3,17.3,17.3s17.3-7.7,17.3-17.3c0-44,35.8-79.6,79.6-79.6
		c9.5,0,17.3-7.7,17.3-17.3C242.3,120.8,234.5,112.9,225,112.9z"/>
</g>
</svg>
